<svg width="34" height="34" viewBox="0 0 34 34" fill="none" xmlns="http://www.w3.org/2000/svg">
<g clip-path="url(#clip0_104_877)">
<path d="M10.6961 30.8125C23.5231 30.8125 30.5409 20.1829 30.5409 10.9677C30.5409 10.6689 30.5343 10.3634 30.521 10.0646C31.8862 9.0773 33.0643 7.85442 34 6.4534C32.7286 7.01908 31.3787 7.38852 29.9964 7.5491C31.4518 6.67668 32.5416 5.30615 33.0637 3.69156C31.6944 4.50302 30.1971 5.07543 28.6357 5.38426C27.5837 4.26644 26.1927 3.52631 24.6779 3.2783C23.163 3.03029 21.6087 3.28822 20.2551 4.0122C18.9016 4.73618 17.8242 5.88589 17.1896 7.28359C16.555 8.68128 16.3985 10.2491 16.7443 11.7446C13.9719 11.6055 11.2596 10.8853 8.78331 9.6307C6.30704 8.37609 4.12207 6.6151 2.37004 4.46188C1.47957 5.99716 1.20708 7.81389 1.60796 9.54286C2.00884 11.2718 3.05301 12.7833 4.52824 13.77C3.42072 13.7349 2.33747 13.4367 1.36797 12.9001V12.9864C1.36698 14.5976 1.92397 16.1594 2.94427 17.4063C3.96457 18.6532 5.38521 19.5084 6.96469 19.8263C5.93874 20.107 4.86197 20.1479 3.8177 19.9458C4.26339 21.3314 5.13056 22.5433 6.29817 23.4124C7.46579 24.2814 8.87559 24.7642 10.3308 24.7935C7.86027 26.7341 4.80841 27.7867 1.6668 27.7818C1.10966 27.7809 0.553065 27.7468 0 27.6795C3.19155 29.727 6.90417 30.8145 10.6961 30.8125Z" fill="#262626"/>
</g>
<defs>
<clipPath id="clip0_104_877">
<rect width="34" height="34" fill="white"/>
</clipPath>
</defs>
</svg>
